<?xml version="1.0" encoding="UTF-8" standalone="no"?><!-- Generator: Gravit.io --><svg xmlns="http://www.w3.org/2000/svg" xmlns:xlink="http://www.w3.org/1999/xlink" style="isolation:isolate" viewBox="0 0 1000 1000" width="1000pt" height="1000pt"><defs><clipPath id="_clipPath_IqOgSVW6BP3rdyuiyPPCx3hmnbFc5zgt"><rect width="1000" height="1000"/></clipPath></defs><g clip-path="url(#_clipPath_IqOgSVW6BP3rdyuiyPPCx3hmnbFc5zgt)"><g><linearGradient id="_lgradient_0" x1="0" y1="0.5" x2="1" y2="0.5" gradientTransform="matrix(1000,0,0,1000,0,0)" gradientUnits="userSpaceOnUse"><stop offset="0%" stop-opacity="0" style="stop-color:rgb(255,255,255)"/><stop offset="0%" stop-opacity="0" style="stop-color:rgb(255,255,255)"/><stop offset="100%" stop-opacity="0" style="stop-color:rgb(255,255,255)"/></linearGradient><rect x="0" y="0" width="1000" height="1000" transform="matrix(1,0,0,1,0,0)" fill="url(#_lgradient_0)"/></g><g><g><g><g><path d=" M 177.02 571.535 C 176.511 571.535 175.996 571.369 175.573 571.04 C 173.769 569.626 131.348 536.028 131.348 494.926 C 131.348 469.742 151.836 449.254 177.02 449.254 C 202.204 449.254 222.692 469.742 222.692 494.926 C 222.692 536.028 180.271 569.624 178.467 571.04 C 178.044 571.369 177.53 571.535 177.02 571.535 Z  M 177.02 453.957 C 154.428 453.957 136.051 472.334 136.051 494.926 C 136.051 529.621 169.58 559.861 177.02 566.139 C 184.46 559.851 217.989 529.59 217.989 494.926 C 217.989 472.334 199.612 453.957 177.02 453.957 Z  M 177.02 517.67 C 164.477 517.67 154.276 507.469 154.276 494.926 C 154.276 482.383 164.477 472.177 177.02 472.177 C 189.563 472.177 199.764 482.383 199.764 494.926 C 199.764 507.469 189.563 517.67 177.02 517.67 Z  M 177.02 476.88 C 167.071 476.88 158.979 484.977 158.979 494.926 C 158.979 504.875 167.071 512.967 177.02 512.967 C 186.969 512.967 195.061 504.875 195.061 494.926 C 195.061 484.977 186.969 476.88 177.02 476.88 Z " fill="rgb(255,255,255)"/></g></g></g><g><g><g><linearGradient id="_lgradient_1" x1="0" y1="0.5" x2="1" y2="0.5" gradientTransform="matrix(0.294,0,0,0.294,671.663,489.053)" gradientUnits="userSpaceOnUse"><stop offset="0%" stop-opacity="1" style="stop-color:rgb(0,0,0)"/><stop offset="100%" stop-opacity="1" style="stop-color:rgb(0,0,0)"/></linearGradient><path d=" M 671.798 489.337 L 671.823 489.337 L 671.83 489.292 C 671.842 489.289 671.851 489.286 671.862 489.279 L 671.899 489.306 L 671.916 489.288 L 671.889 489.252 C 671.896 489.241 671.9 489.23 671.903 489.218 L 671.948 489.211 L 671.948 489.186 L 671.903 489.18 C 671.9 489.168 671.896 489.159 671.889 489.148 L 671.916 489.111 L 671.899 489.094 L 671.862 489.121 C 671.851 489.114 671.842 489.11 671.83 489.107 L 671.823 489.062 L 671.798 489.062 L 671.791 489.107 C 671.778 489.111 671.77 489.114 671.759 489.121 L 671.722 489.094 L 671.704 489.111 L 671.732 489.148 C 671.725 489.159 671.721 489.167 671.718 489.18 L 671.673 489.186 L 671.673 489.211 L 671.718 489.218 C 671.721 489.231 671.725 489.24 671.732 489.252 L 671.704 489.288 L 671.722 489.306 L 671.759 489.279 C 671.769 489.285 671.779 489.289 671.791 489.292 L 671.798 489.337 L 671.798 489.337 Z  M 671.79 489.347 L 671.783 489.3 C 671.775 489.298 671.766 489.294 671.759 489.29 L 671.721 489.318 L 671.692 489.289 L 671.72 489.251 C 671.716 489.243 671.712 489.235 671.71 489.227 L 671.663 489.22 L 671.663 489.178 L 671.711 489.171 C 671.713 489.163 671.716 489.156 671.72 489.149 L 671.692 489.11 L 671.721 489.081 L 671.759 489.109 C 671.767 489.105 671.774 489.102 671.783 489.1 L 671.79 489.053 L 671.831 489.053 L 671.838 489.1 C 671.846 489.102 671.855 489.105 671.862 489.109 L 671.9 489.081 L 671.929 489.11 L 671.901 489.149 C 671.905 489.155 671.908 489.164 671.91 489.171 L 671.957 489.178 L 671.957 489.22 L 671.911 489.227 C 671.908 489.235 671.905 489.244 671.901 489.251 L 671.929 489.289 L 671.9 489.318 L 671.862 489.29 C 671.854 489.294 671.846 489.298 671.838 489.3 L 671.831 489.347 L 671.79 489.347 L 671.79 489.347 Z " fill="url(#_lgradient_1)"/></g></g></g><g><g><g><linearGradient id="_lgradient_2" x1="0" y1="0.5" x2="1" y2="0.5" gradientTransform="matrix(0.294,0,0,0.294,671.663,489.053)" gradientUnits="userSpaceOnUse"><stop offset="0%" stop-opacity="1" style="stop-color:rgb(0,0,0)"/><stop offset="100%" stop-opacity="1" style="stop-color:rgb(0,0,0)"/></linearGradient><path d=" M 671.798 489.337 L 671.823 489.337 L 671.83 489.292 C 671.842 489.289 671.851 489.286 671.862 489.279 L 671.899 489.306 L 671.916 489.288 L 671.889 489.252 C 671.896 489.241 671.9 489.23 671.903 489.218 L 671.948 489.211 L 671.948 489.186 L 671.903 489.18 C 671.9 489.168 671.896 489.159 671.889 489.148 L 671.916 489.111 L 671.899 489.094 L 671.862 489.121 C 671.851 489.114 671.842 489.11 671.83 489.107 L 671.823 489.062 L 671.798 489.062 L 671.791 489.107 C 671.778 489.111 671.77 489.114 671.759 489.121 L 671.722 489.094 L 671.704 489.111 L 671.732 489.148 C 671.725 489.159 671.721 489.167 671.718 489.18 L 671.673 489.186 L 671.673 489.211 L 671.718 489.218 C 671.721 489.231 671.725 489.24 671.732 489.252 L 671.704 489.288 L 671.722 489.306 L 671.759 489.279 C 671.769 489.285 671.779 489.289 671.791 489.292 L 671.798 489.337 L 671.798 489.337 Z  M 671.79 489.347 L 671.783 489.3 C 671.775 489.298 671.766 489.294 671.759 489.29 L 671.721 489.318 L 671.692 489.289 L 671.72 489.251 C 671.716 489.243 671.712 489.235 671.71 489.227 L 671.663 489.22 L 671.663 489.178 L 671.711 489.171 C 671.713 489.163 671.716 489.156 671.72 489.149 L 671.692 489.11 L 671.721 489.081 L 671.759 489.109 C 671.767 489.105 671.774 489.102 671.783 489.1 L 671.79 489.053 L 671.831 489.053 L 671.838 489.1 C 671.846 489.102 671.855 489.105 671.862 489.109 L 671.9 489.081 L 671.929 489.11 L 671.901 489.149 C 671.905 489.155 671.908 489.164 671.91 489.171 L 671.957 489.178 L 671.957 489.22 L 671.911 489.227 C 671.908 489.235 671.905 489.244 671.901 489.251 L 671.929 489.289 L 671.9 489.318 L 671.862 489.29 C 671.854 489.294 671.846 489.298 671.838 489.3 L 671.831 489.347 L 671.79 489.347 L 671.79 489.347 Z " fill="url(#_lgradient_2)"/></g></g></g><g><g><g><path d=" M 67.609 527.624 L 85.962 527.624 C 89.607 527.624 94.374 530.353 96.281 533.501 L 99.355 540.92 C 100.23 544.499 98.789 549.799 96.217 552.374 L 83.236 565.352 C 78.577 570.011 78.577 577.594 83.236 582.258 L 97.403 596.425 C 99.655 598.677 102.656 599.916 105.856 599.918 L 105.858 599.918 C 109.058 599.918 112.061 598.677 114.309 596.425 L 127.288 583.446 C 129.863 580.87 135.159 579.434 138.744 580.306 L 146.16 583.379 C 149.308 585.286 152.037 590.054 152.037 593.699 L 152.037 612.051 C 152.037 618.644 157.399 624.006 163.991 624.006 L 184.028 624.006 C 190.621 624.006 195.983 618.644 195.983 612.051 L 195.983 593.699 C 195.983 590.054 198.71 585.286 201.86 583.379 L 209.279 580.306 C 212.842 579.422 218.154 580.87 220.73 583.447 L 233.709 596.424 C 235.959 598.677 238.96 599.916 242.16 599.918 C 242.162 599.918 242.162 599.918 242.163 599.918 C 245.362 599.918 248.365 598.677 250.616 596.425 L 264.789 582.256 C 269.445 577.592 269.445 570.008 264.787 565.352 L 251.8 552.369 C 249.226 549.798 247.787 544.501 248.665 540.922 L 251.74 533.501 C 253.648 530.353 258.413 527.624 262.055 527.624 L 280.407 527.624 C 287 527.624 292.362 522.262 292.362 515.669 L 292.362 495.633 C 292.362 489.04 287 483.678 280.407 483.678 L 262.055 483.678 C 258.413 483.678 253.647 480.949 251.74 477.8 L 248.663 470.382 C 247.782 466.809 249.224 461.509 251.806 458.928 L 264.789 445.952 C 269.445 441.288 269.445 433.704 264.787 429.048 L 250.616 414.875 C 246.11 410.375 238.207 410.374 233.71 414.877 L 220.734 427.856 C 218.155 430.435 212.856 431.877 209.28 430.998 L 201.86 427.923 C 198.71 426.016 195.983 421.25 195.983 417.606 L 195.983 399.251 C 195.983 392.658 190.62 387.296 184.028 387.296 L 163.991 387.296 C 157.399 387.296 152.037 392.658 152.037 399.251 L 152.037 417.606 C 152.037 421.25 149.308 426.016 146.16 427.923 L 138.744 430.996 C 135.163 431.876 129.863 430.435 127.287 427.858 L 114.309 414.877 C 109.652 410.216 102.067 410.219 97.403 414.877 L 83.236 429.048 C 78.576 433.707 78.576 441.29 83.236 445.953 L 96.215 458.928 C 98.789 461.504 100.23 466.806 99.355 470.385 L 96.281 477.801 C 94.374 480.949 89.607 483.678 85.962 483.678 L 67.609 483.678 C 61.017 483.678 55.655 489.04 55.655 495.633 L 55.655 515.669 C 55.655 522.262 61.017 527.624 67.609 527.624 Z  M 61.984 495.633 C 61.984 492.531 64.508 490.008 67.609 490.008 L 85.962 490.008 C 91.921 490.008 98.908 485.957 101.868 480.788 L 105.288 472.604 L 105.419 472.219 C 106.977 466.469 104.901 458.665 100.692 454.451 L 87.713 441.478 C 85.52 439.284 85.52 435.716 87.711 433.523 L 101.879 419.354 C 104.071 417.161 107.641 417.159 109.834 419.352 L 122.812 432.333 C 127.026 436.547 134.836 438.624 140.581 437.059 L 148.786 433.687 L 149.147 433.509 C 154.316 430.55 158.367 423.563 158.367 417.606 L 158.367 399.251 C 158.367 396.149 160.89 393.626 163.992 393.626 L 184.028 393.626 C 187.13 393.626 189.653 396.149 189.653 399.251 L 189.653 417.606 C 189.653 423.563 193.704 430.55 198.873 433.509 L 207.06 436.929 L 207.442 437.059 C 213.182 438.618 220.991 436.545 225.208 432.333 L 238.187 419.352 C 240.298 417.24 244.03 417.243 246.141 419.352 L 260.312 433.523 C 262.503 435.714 262.502 439.284 260.312 441.478 L 247.331 454.451 C 243.111 458.668 241.034 466.475 242.602 472.226 L 245.977 480.428 L 246.155 480.788 C 249.114 485.957 256.099 490.008 262.055 490.008 L 280.407 490.008 C 283.509 490.008 286.032 492.531 286.032 495.633 L 286.032 515.669 C 286.032 518.771 283.509 521.294 280.407 521.294 L 262.055 521.294 C 256.099 521.294 249.114 525.345 246.155 530.514 L 242.732 538.699 L 242.602 539.083 C 241.04 544.837 243.114 552.64 247.325 556.848 L 260.312 569.827 C 262.503 572.018 262.502 575.588 260.312 577.782 L 246.141 591.95 C 245.084 593.005 243.672 593.588 242.164 593.588 C 242.162 593.588 242.162 593.588 242.162 593.588 C 240.654 593.588 239.241 593.005 238.186 591.95 L 225.207 578.974 C 221 574.763 213.196 572.689 207.445 574.242 L 199.234 577.615 L 198.873 577.793 C 193.704 580.752 189.653 587.74 189.653 593.699 L 189.653 612.051 C 189.653 615.153 187.13 617.676 184.028 617.676 L 163.992 617.676 C 160.89 617.676 158.367 615.153 158.367 612.051 L 158.367 593.699 C 158.367 587.74 154.316 580.752 149.147 577.793 L 140.963 574.373 L 140.58 574.242 C 139.285 573.891 137.888 573.724 136.449 573.724 C 131.496 573.724 126.074 575.707 122.812 578.972 L 109.832 591.95 C 108.779 593.007 107.366 593.588 105.858 593.588 C 105.858 593.588 105.858 593.588 105.856 593.588 C 104.348 593.588 102.934 593.005 101.879 591.95 L 87.713 577.784 C 85.52 575.588 85.52 572.02 87.711 569.827 L 100.692 556.849 C 104.901 552.641 106.977 544.837 105.419 539.086 L 102.046 530.875 L 101.868 530.514 C 98.909 525.345 91.921 521.294 85.962 521.294 L 67.609 521.294 C 64.508 521.294 61.984 518.771 61.984 515.669 L 61.984 495.633 L 61.984 495.633 Z " fill="rgb(255,255,255)"/></g></g></g><g><g><g><path d=" M 296.1 561.404 L 296.1 552.272 L 307.824 550.254 L 307.824 464.831 L 296.1 462.814 L 296.1 453.682 L 319.974 453.682 L 321.27 463.167 Q 325.159 457.85 330.726 455.052 Q 336.308 452.239 343.642 452.239 L 343.642 452.239 Q 358.091 452.239 366.118 463.712 Q 374.13 475.185 374.13 494.022 L 374.13 494.022 L 374.13 495.539 Q 374.13 512.359 366.073 522.683 Q 358.017 533.008 343.863 533.008 L 343.863 533.008 Q 336.661 533.008 331.241 530.592 Q 325.807 528.177 321.992 523.435 L 321.992 523.435 L 321.992 550.254 L 333.716 552.272 L 333.716 561.404 L 296.1 561.404 Z  M 359.888 495.539 L 359.888 494.022 Q 359.888 480.723 354.718 472.24 Q 349.534 463.741 339.327 463.741 L 339.327 463.741 Q 333.289 463.741 328.973 466.481 Q 324.658 469.206 321.992 473.963 L 321.992 473.963 L 321.992 511.858 Q 324.658 516.674 328.929 519.296 Q 333.215 521.932 339.474 521.932 L 339.474 521.932 Q 349.534 521.932 354.718 514.598 Q 359.888 507.248 359.888 495.539 L 359.888 495.539 Z  M 460.141 453.682 L 460.141 462.814 L 453.16 463.889 L 423.542 543.435 Q 420.596 551.271 415.059 557.088 Q 409.521 562.921 400.169 562.921 L 400.169 562.921 Q 398.519 562.921 395.853 562.523 Q 393.187 562.125 391.759 561.772 L 391.759 561.772 L 393.187 550.623 Q 392.76 550.549 395.75 550.77 Q 398.725 550.976 399.521 550.976 L 399.521 550.976 Q 404.057 550.976 406.855 547.058 Q 409.653 543.141 411.745 538.03 L 411.745 538.03 L 415.118 529.974 L 389.447 463.962 L 382.333 462.814 L 382.333 453.682 L 413.763 453.682 L 413.763 462.814 L 404.985 464.257 L 418.431 502.653 L 421.024 512.58 L 421.451 512.58 L 437.637 464.257 L 428.785 462.814 L 428.785 453.682 L 460.141 453.682 Z " fill="rgb(255,255,255)"/></g></g></g><g><g><g><path d=" M 468.767 497.191 L 468.767 495.579 Q 468.767 475.641 477.484 463.402 Q 486.201 451.179 501.554 451.179 L 501.554 451.179 Q 509.348 451.179 515.233 454.231 Q 521.117 457.299 525.092 463.105 L 525.092 463.105 L 526.47 452.713 L 539.162 452.713 L 539.162 534.33 Q 539.162 550.371 530.21 559.574 Q 521.274 568.792 504.763 568.792 L 504.763 568.792 Q 498.8 568.792 491.851 567.148 Q 484.902 565.505 479.628 562.672 L 479.628 562.672 L 483.525 550.982 Q 487.719 553.204 493.463 554.644 Q 499.191 556.099 504.606 556.099 L 504.606 556.099 Q 514.701 556.099 519.396 550.449 Q 524.106 544.8 524.106 534.33 L 524.106 534.33 L 524.106 526.457 Q 520.053 531.653 514.388 534.33 Q 508.738 537.006 501.398 537.006 L 501.398 537.006 Q 486.201 537.006 477.484 525.988 Q 468.767 514.986 468.767 497.191 L 468.767 497.191 Z  M 483.822 495.579 L 483.822 497.191 Q 483.822 509.633 489.097 517.208 Q 494.371 524.767 505.154 524.767 L 505.154 524.767 Q 511.946 524.767 516.532 521.684 Q 521.117 518.585 524.106 512.92 L 524.106 512.92 L 524.106 474.874 Q 521.195 469.6 516.532 466.501 Q 511.868 463.402 505.295 463.402 L 505.295 463.402 Q 494.527 463.402 489.175 472.432 Q 483.822 481.447 483.822 495.579 L 483.822 495.579 Z  M 595.021 537.006 L 595.021 537.006 Q 577.743 537.006 567.539 525.503 Q 557.335 514 557.335 495.658 L 557.335 495.658 L 557.335 492.293 Q 557.335 474.639 567.852 462.917 Q 578.353 451.179 592.72 451.179 L 592.72 451.179 Q 609.388 451.179 617.98 461.274 Q 626.572 471.353 626.572 488.161 L 626.572 488.161 L 626.572 497.567 L 572.938 497.567 L 572.704 497.943 Q 572.938 509.868 578.745 517.552 Q 584.551 525.237 595.021 525.237 L 595.021 525.237 Q 602.658 525.237 608.433 523.046 Q 614.193 520.87 618.403 517.052 L 618.403 517.052 L 624.287 526.833 Q 619.858 531.121 612.549 534.064 Q 605.256 537.006 595.021 537.006 Z  M 592.72 463.027 L 592.72 463.027 Q 585.161 463.027 579.809 469.412 Q 574.456 475.782 573.236 485.422 L 573.236 485.422 L 573.392 485.798 L 611.516 485.798 L 611.516 483.81 Q 611.516 474.952 606.79 468.989 Q 602.048 463.027 592.72 463.027 Z  M 641.471 494.969 L 641.471 493.294 Q 641.471 474.952 651.409 463.058 Q 661.347 451.179 678.39 451.179 L 678.39 451.179 Q 695.511 451.179 705.481 463.027 Q 715.45 474.874 715.45 493.294 L 715.45 493.294 L 715.45 494.969 Q 715.45 513.468 705.512 525.237 Q 695.574 537.006 678.546 537.006 L 678.546 537.006 Q 661.347 537.006 651.409 525.19 Q 641.471 513.389 641.471 494.969 L 641.471 494.969 Z  M 656.526 493.294 L 656.526 494.969 Q 656.526 508.115 662.067 516.676 Q 667.607 525.237 678.546 525.237 L 678.546 525.237 Q 689.236 525.237 694.823 516.676 Q 700.394 508.115 700.394 494.969 L 700.394 494.969 L 700.394 493.294 Q 700.394 480.289 694.823 471.666 Q 689.236 463.027 678.39 463.027 L 678.39 463.027 Q 667.529 463.027 662.035 471.666 Q 656.526 480.289 656.526 493.294 L 656.526 493.294 Z  M 802.878 535.394 L 783.159 535.394 Q 782.47 532.029 782.079 529.353 Q 781.703 526.677 781.547 524 L 781.547 524 Q 777.196 529.588 770.654 533.297 Q 764.128 537.006 756.71 537.006 L 756.71 537.006 Q 743.798 537.006 737.084 530.699 Q 730.355 524.392 730.355 512.92 L 730.355 512.92 Q 730.355 501.151 739.87 494.781 Q 749.385 488.396 765.959 488.396 L 765.959 488.396 L 781.469 488.396 L 781.469 478.771 Q 781.469 471.509 776.883 467.268 Q 772.297 463.027 764.128 463.027 L 764.128 463.027 Q 758.478 463.027 754.159 464.482 Q 749.839 465.938 747.163 468.457 L 747.163 468.457 L 745.551 477.159 L 733.939 477.159 L 733.939 461.117 Q 739.604 456.61 747.617 453.887 Q 755.646 451.179 765.051 451.179 L 765.051 451.179 Q 779.105 451.179 787.823 458.363 Q 796.524 465.546 796.524 478.927 L 796.524 478.927 L 796.524 518.742 Q 796.524 520.338 796.571 521.872 Q 796.602 523.39 796.759 524.924 L 796.759 524.924 L 802.878 525.769 L 802.878 535.394 Z  M 758.932 524.392 L 758.932 524.392 Q 766.429 524.392 772.611 520.792 Q 778.808 517.208 781.469 512.169 L 781.469 512.169 L 781.469 498.553 L 765.427 498.553 Q 756.178 498.553 750.794 502.841 Q 745.41 507.114 745.41 513.233 L 745.41 513.233 Q 745.41 518.664 748.775 521.528 Q 752.124 524.392 758.932 524.392 Z  M 813.565 567.18 L 813.565 557.476 L 826.022 555.332 L 826.022 464.56 L 813.565 462.416 L 813.565 452.713 L 838.934 452.713 L 840.311 462.792 Q 844.443 457.142 850.358 454.169 Q 856.29 451.179 864.084 451.179 L 864.084 451.179 Q 879.437 451.179 887.966 463.371 Q 896.48 475.563 896.48 495.579 L 896.48 495.579 L 896.48 497.191 Q 896.48 515.064 887.919 526.035 Q 879.359 537.006 864.319 537.006 L 864.319 537.006 Q 856.666 537.006 850.906 534.439 Q 845.131 531.872 841.078 526.833 L 841.078 526.833 L 841.078 555.332 L 853.535 557.476 L 853.535 567.18 L 813.565 567.18 Z  M 881.346 497.191 L 881.346 495.579 Q 881.346 481.447 875.853 472.432 Q 870.344 463.402 859.498 463.402 L 859.498 463.402 Q 853.082 463.402 848.496 466.313 Q 843.911 469.208 841.078 474.264 L 841.078 474.264 L 841.078 514.532 Q 843.911 519.65 848.449 522.435 Q 853.003 525.237 859.655 525.237 L 859.655 525.237 Q 870.344 525.237 875.853 517.443 Q 881.346 509.633 881.346 497.191 L 881.346 497.191 Z  M 910.169 535.394 L 910.169 525.769 L 922.611 523.625 L 922.611 464.56 L 910.169 462.416 L 910.169 452.713 L 937.667 452.713 L 937.667 523.625 L 950.125 525.769 L 950.125 535.394 L 910.169 535.394 Z  M 937.667 416.185 L 937.667 431.538 L 922.611 431.538 L 922.611 416.185 L 937.667 416.185 Z " fill="rgb(255,255,255)"/></g></g></g></g></g></svg>