<svg xmlns="http://www.w3.org/2000/svg" viewBox="0 0 33 33" shape-rendering="crispEdges"><path fill="#ffffff" d="M0 0h33v33H0z"/><path stroke="#000000" d="M2 2.5h7m1 0h1m2 0h2m2 0h4m1 0h1m1 0h7M2 3.5h1m5 0h1m1 0h1m1 0h1m1 0h2m3 0h2m1 0h1m1 0h1m5 0h1M2 4.5h1m1 0h3m1 0h1m3 0h4m1 0h1m2 0h2m2 0h1m1 0h3m1 0h1M2 5.5h1m1 0h3m1 0h1m1 0h9m2 0h2m1 0h1m1 0h3m1 0h1M2 6.5h1m1 0h3m1 0h1m2 0h4m2 0h6m1 0h1m1 0h3m1 0h1M2 7.5h1m5 0h1m3 0h2m2 0h1m1 0h1m1 0h2m2 0h1m5 0h1M2 8.5h7m1 0h1m1 0h1m1 0h1m1 0h1m1 0h1m1 0h1m1 0h1m1 0h7M10 9.5h2m5 0h1m1 0h4M2 10.5h1m1 0h2m1 0h3m3 0h1m1 0h2m2 0h3m2 0h1m2 0h1m1 0h2M2 11.5h1m10 0h1m2 0h1m4 0h6m3 0h1M5 12.5h4m5 0h2m2 0h1m3 0h3m1 0h1m1 0h2M3 13.5h1m1 0h1m1 0h1m2 0h3m2 0h1m1 0h2m1 0h1m1 0h1m1 0h1m5 0h1M3 14.5h2m3 0h1m4 0h6m6 0h1m1 0h2M3 15.5h5m1 0h1m1 0h1m2 0h1m2 0h1m6 0h1m3 0h3M3 16.5h1m3 0h2m1 0h1m2 0h2m1 0h1m1 0h1m1 0h3m3 0h1m1 0h3M2 17.5h2m1 0h2m5 0h1m9 0h1m2 0h1m3 0h1M2 18.5h2m1 0h1m2 0h3m1 0h1m3 0h5m4 0h3m1 0h1M3 19.5h1m1 0h3m1 0h2m2 0h2m2 0h1m4 0h1m4 0h3M2 20.5h1m2 0h4m1 0h2m3 0h3m4 0h1m1 0h1m3 0h1M4 21.5h1m10 0h2m1 0h4m2 0h2m2 0h1M3 22.5h1m1 0h2m1 0h2m2 0h1m1 0h3m1 0h1m1 0h1m1 0h7M10 23.5h3m5 0h3m1 0h1m3 0h5M2 24.5h7m1 0h2m1 0h1m2 0h1m1 0h1m1 0h3m1 0h1m1 0h2m1 0h1M2 25.5h1m5 0h1m1 0h1m1 0h1m1 0h5m2 0h2m3 0h2m2 0h1M2 26.5h1m1 0h3m1 0h1m2 0h1m2 0h1m7 0h5m1 0h3M2 27.5h1m1 0h3m1 0h1m1 0h3m2 0h1m2 0h1m2 0h1m1 0h1m2 0h2m2 0h1M2 28.5h1m1 0h3m1 0h1m1 0h1m2 0h1m2 0h1m1 0h1m1 0h1m1 0h1m2 0h1m2 0h1m1 0h1M2 29.5h1m5 0h1m2 0h5m1 0h1m4 0h1m2 0h3m1 0h1M2 30.5h7m1 0h1m2 0h2m2 0h2m2 0h2m2 0h1m1 0h1m1 0h1"/></svg>
